P3
3 3
255
0 0 0 32 32 32 64 64 64 96 96 96 128 128 128 159 159 159 191 191 191 223 223 223 255 255 255 